<svg xmlns="http://www.w3.org/2000/svg" viewBox="0 0 400 400" width="100%" height="100%">
  <defs>
    <linearGradient id="bg-grad-ayyappan" x1="0%" y1="0%" x2="100%" y2="100%">
      <stop offset="0%" stop-color="#0e7490" />
      <stop offset="100%" stop-color="#0369a1" />
    </linearGradient>
  </defs>

  <rect width="400" height="400" rx="48" fill="url(#bg-grad-ayyappan)" />
  <circle cx="200" cy="200" r="160" fill="#38bdf8" opacity="0.08" />

  <g>
    <!-- Crisp Shirt & Tie -->
    <polygon points="170,250 230,250 220,370 180,370" fill="#f8fafc" />
    <polygon points="194,250 206,250 203,340 200,355 197,340" fill="#0284c7" />
    <!-- Navy Hospital Admin Blazer -->
    <path d="M100 390 L100 310 C100 265 140 248 170 248 L200 340 L160 390 Z" fill="#0f172a" />
    <path d="M300 390 L300 310 C300 265 260 248 230 248 L200 340 L240 390 Z" fill="#0f172a" />
    <path d="M65 390 C65 295 105 255 155 248 L135 390 Z" fill="#1e293b" />
    <path d="M335 390 C335 295 295 255 245 248 L265 390 Z" fill="#1e293b" />
  </g>

  <path d="M175 198 L225 198 L228 255 L172 255 Z" fill="#c47d4e" />
  <ellipse cx="200" cy="175" rx="54" ry="63" fill="#d98956" />

  <circle cx="146" cy="175" r="13" fill="#c47d4e" />
  <circle cx="254" cy="175" r="13" fill="#c47d4e" />

  <!-- Modern Hair -->
  <path d="M146 155 C142 110 170 95 200 95 C230 95 258 110 254 155 C248 120 235 110 200 110 C165 110 152 120 146 155 Z" fill="#0f172a" />
  <path d="M152 130 C160 115 180 105 205 105 C230 105 245 115 250 130 Z" fill="#1e293b" />

  <path d="M165 150 Q180 145 190 150" fill="none" stroke="#0f172a" stroke-width="3.5" stroke-linecap="round" />
  <path d="M210 150 Q220 145 235 150" fill="none" stroke="#0f172a" stroke-width="3.5" stroke-linecap="round" />

  <circle cx="178" cy="162" r="5" fill="#0f172a" />
  <circle cx="222" cy="162" r="5" fill="#0f172a" />
  <circle cx="180" cy="160" r="1.5" fill="#ffffff" />
  <circle cx="224" cy="160" r="1.5" fill="#ffffff" />

  <path d="M197 165 L197 182 Q200 185 204 182" fill="none" stroke="#a35b2e" stroke-width="2.5" stroke-linecap="round" />
  <path d="M185 200 Q200 210 215 200" fill="none" stroke="#7c2d12" stroke-width="3" stroke-linecap="round" />

  <!-- Hospital Operations Tag -->
  <g transform="translate(135, 300)">
    <rect width="36" height="24" rx="4" fill="#ffffff" stroke="#0891b2" stroke-width="1.5" />
    <rect x="6" y="6" width="24" height="3" rx="1" fill="#0891b2" />
    <rect x="6" y="13" width="16" height="2" rx="1" fill="#94a3b8" />
  </g>
</svg>
